<svg width="26" height="32" viewBox="0 0 26 32" fill="none" xmlns="http://www.w3.org/2000/svg">
<path d="M24.4593 16.9135C22.0754 10.7184 13.5874 10.3843 15.6373 1.38001C15.7891 0.711895 15.0754 0.195631 14.4985 0.544868C8.98658 3.7943 5.02348 10.3083 8.34883 18.8419C8.62215 19.5404 7.80221 20.1933 7.21002 19.7378C4.46166 17.6575 4.17316 14.6662 4.41611 12.5252C4.50722 11.7357 3.47469 11.356 3.03434 12.009C2.00182 13.5882 0.954102 16.1391 0.954102 19.9807C1.5311 28.4839 8.71325 31.0956 11.2946 31.4296C14.9844 31.9004 18.9778 31.217 21.8477 28.5902C25.006 25.6596 26.16 20.9829 24.4593 16.9135ZM10.3683 24.5512C12.5549 24.0197 13.6785 22.4406 13.9822 21.0436C14.4833 18.8723 12.5245 16.7465 13.8455 13.3149C14.3466 16.1543 18.8108 17.9308 18.8108 21.0284C18.9323 24.8701 14.7718 28.165 10.3683 24.5512Z" fill="#3671E9"/>
</svg>
