<svg width="25" height="21" viewBox="0 0 25 21" fill="none" xmlns="http://www.w3.org/2000/svg">
<path d="M22.4841 2.19156C22.5584 1.7189 22.3513 1.24234 21.9568 0.972806C21.5623 0.703274 21.0466 0.679837 20.6287 0.918118L3.12867 10.9181C2.71461 11.1525 2.47242 11.6017 2.50367 12.0783C2.53492 12.5548 2.8318 12.9728 3.2693 13.1564L8.74977 15.4376V19.0705C8.74977 20.0001 9.50367 20.7501 10.4295 20.7501C10.9412 20.7501 11.4216 20.5197 11.742 20.1212L13.8045 17.5431H13.8084L18.2693 19.4025C18.6248 19.5509 19.0271 19.5275 19.363 19.34C19.699 19.1525 19.9295 18.8205 19.988 18.4416L22.488 2.19156H22.4841ZM12.6013 17.0431L10.7654 19.34C10.6834 19.4416 10.5584 19.5001 10.4295 19.5001C10.1912 19.5001 9.99977 19.3087 9.99977 19.0705V15.9572L12.6013 17.0431ZM14.2849 16.3908L10.5115 14.8166L21.0193 3.50406L18.7498 18.2501L14.2888 16.3908H14.2849ZM20.0974 2.6564L9.28102 14.3048L3.74977 12.0001L20.0974 2.6564Z" fill="white"/>
</svg>
