<svg width="19" height="18" viewBox="0 0 19 18" fill="none" xmlns="http://www.w3.org/2000/svg">
<path d="M9.50391 4.25684C7.01953 4.25684 5.01562 6.26074 5.01562 8.74512C5.01562 11.2295 7.01953 13.2334 9.50391 13.2334C11.9883 13.2334 13.9922 11.2295 13.9922 8.74512C13.9922 6.26074 11.9883 4.25684 9.50391 4.25684ZM9.50391 11.6631C7.89844 11.6631 6.58594 10.3545 6.58594 8.74512C6.58594 7.13574 7.89453 5.82715 9.50391 5.82715C11.1133 5.82715 12.4219 7.13574 12.4219 8.74512C12.4219 10.3545 11.1094 11.6631 9.50391 11.6631ZM15.2227 4.07324C15.2227 4.65527 14.7539 5.12012 14.1758 5.12012C13.5938 5.12012 13.1289 4.65137 13.1289 4.07324C13.1289 3.49512 13.5977 3.02637 14.1758 3.02637C14.7539 3.02637 15.2227 3.49512 15.2227 4.07324ZM18.1953 5.13574C18.1289 3.7334 17.8086 2.49121 16.7812 1.46777C15.7578 0.444336 14.5156 0.124023 13.1133 0.0537109C11.668 -0.0283203 7.33594 -0.0283203 5.89062 0.0537109C4.49219 0.120117 3.25 0.44043 2.22266 1.46387C1.19531 2.4873 0.878906 3.72949 0.808594 5.13184C0.726562 6.57715 0.726562 10.9092 0.808594 12.3545C0.875 13.7568 1.19531 14.999 2.22266 16.0225C3.25 17.0459 4.48828 17.3662 5.89062 17.4365C7.33594 17.5186 11.668 17.5186 13.1133 17.4365C14.5156 17.3701 15.7578 17.0498 16.7812 16.0225C17.8047 14.999 18.125 13.7568 18.1953 12.3545C18.2773 10.9092 18.2773 6.58105 18.1953 5.13574ZM16.3281 13.9053C16.0234 14.6709 15.4336 15.2607 14.6641 15.5693C13.5117 16.0264 10.7773 15.9209 9.50391 15.9209C8.23047 15.9209 5.49219 16.0225 4.34375 15.5693C3.57812 15.2646 2.98828 14.6748 2.67969 13.9053C2.22266 12.7529 2.32813 10.0186 2.32813 8.74512C2.32813 7.47168 2.22656 4.7334 2.67969 3.58496C2.98438 2.81934 3.57422 2.22949 4.34375 1.9209C5.49609 1.46387 8.23047 1.56934 9.50391 1.56934C10.7773 1.56934 13.5156 1.46777 14.6641 1.9209C15.4297 2.22559 16.0195 2.81543 16.3281 3.58496C16.7852 4.7373 16.6797 7.47168 16.6797 8.74512C16.6797 10.0186 16.7852 12.7568 16.3281 13.9053Z" fill="white"/>
</svg>
