<svg width="16" height="16" viewBox="0 0 16 16" fill="none" xmlns="http://www.w3.org/2000/svg">
<path d="M5.29298 14.364C5.10551 14.1764 5.0002 13.9221 5.0002 13.657C5.0002 13.3918 5.10551 13.1375 5.29298 12.95L10.243 7.99995L5.29298 3.04995C5.11083 2.86135 5.01003 2.60875 5.01231 2.34655C5.01459 2.08435 5.11976 1.83354 5.30516 1.64813C5.49057 1.46272 5.74139 1.35756 6.00358 1.35528C6.26578 1.353 6.51838 1.45379 6.70698 1.63595L12.364 7.29295C12.5515 7.48048 12.6568 7.73479 12.6568 7.99995C12.6568 8.26512 12.5515 8.51942 12.364 8.70695L6.70698 14.364C6.51945 14.5514 6.26515 14.6567 5.99998 14.6567C5.73482 14.6567 5.48051 14.5514 5.29298 14.364Z" fill="#3671E9"/>
</svg>
