<svg width="22" height="22" viewBox="0 0 22 22" fill="none" xmlns="http://www.w3.org/2000/svg">
<path d="M9.625 22C12.177 21.9976 14.6237 20.9827 16.4282 19.1782C18.2327 17.3737 19.2476 14.927 19.25 12.375C19.25 12.2534 19.2017 12.1369 19.1158 12.0509C19.0298 11.965 18.9132 11.9167 18.7917 11.9167H10.5417C10.4201 11.9167 10.3035 11.8684 10.2176 11.7824C10.1316 11.6965 10.0833 11.5799 10.0833 11.4583V3.20833C10.0833 3.08678 10.035 2.9702 9.94909 2.88424C9.86314 2.79829 9.74656 2.75 9.625 2.75C7.07229 2.75 4.62414 3.76406 2.8191 5.5691C1.01406 7.37414 0 9.82229 0 12.375C0 14.9277 1.01406 17.3759 2.8191 19.1809C4.62414 20.9859 7.07229 22 9.625 22Z" fill="#7583FF"/>
<path d="M12.3753 0C12.2538 0 12.1372 0.0482886 12.0512 0.134243C11.9653 0.220197 11.917 0.336776 11.917 0.458333V9.16667C11.917 9.40978 12.0136 9.64294 12.1855 9.81485C12.3574 9.98676 12.5905 10.0833 12.8337 10.0833H21.542C21.6636 10.0833 21.7801 10.035 21.8661 9.94909C21.952 9.86314 22.0003 9.74656 22.0003 9.625C21.9979 7.07304 20.9831 4.62629 19.1785 2.82178C17.374 1.01727 14.9273 0.00242698 12.3753 0V0Z" fill="#7583FF"/>
</svg>
