<svg width="18" height="18" viewBox="0 0 18 18" fill="none" xmlns="http://www.w3.org/2000/svg">
<path d="M9 0C10.2937 0 11.4187 0.727734 11.9848 1.79648C13.1414 1.44141 14.4492 1.72266 15.3633 2.63672C16.2773 3.55078 16.5586 4.86211 16.2035 6.01523C17.2723 6.58125 18 7.70625 18 9C18 10.2937 17.2723 11.4187 16.2035 11.9848C16.5586 13.1414 16.2773 14.4492 15.3633 15.3633C14.4492 16.2773 13.1379 16.5586 11.9848 16.2035C11.4187 17.2723 10.2937 18 9 18C7.70625 18 6.58125 17.2723 6.01523 16.2035C4.85859 16.5586 3.55078 16.2773 2.63672 15.3633C1.72266 14.4492 1.44141 13.1379 1.79648 11.9848C0.727734 11.4187 0 10.2937 0 9C0 7.70625 0.727734 6.58125 1.79648 6.01523C1.44141 4.85859 1.72266 3.55078 2.63672 2.63672C3.55078 1.72266 4.86211 1.44141 6.01523 1.79648C6.58125 0.727734 7.70625 0 9 0ZM12.9727 7.34766C13.3031 7.01719 13.3031 6.48281 12.9727 6.15586C12.6422 5.82891 12.1078 5.82539 11.7809 6.15586L7.87852 10.0582L6.22617 8.40586C5.8957 8.07539 5.36133 8.07539 5.03437 8.40586C4.70742 8.73633 4.70391 9.2707 5.03437 9.59766L7.28437 11.8477C7.61484 12.1781 8.14922 12.1781 8.47617 11.8477L12.9727 7.34766Z" fill="#41FFC0"/>
</svg>
