<svg width="22" height="14" viewBox="0 0 22 14" fill="none" xmlns="http://www.w3.org/2000/svg">
<path d="M21.587 7.9986C21.718 7.86774 21.8219 7.71235 21.8928 7.54132C21.9636 7.3703 22.0001 7.18698 22.0001 7.00184C22.0001 6.81671 21.9636 6.63339 21.8928 6.46236C21.8219 6.29133 21.718 6.13595 21.587 6.00509L17.0743 1.49234C16.9442 1.35761 16.7887 1.25013 16.6166 1.17617C16.4446 1.10222 16.2595 1.06326 16.0723 1.06158C15.8851 1.0599 15.6993 1.09553 15.526 1.16639C15.3527 1.23725 15.1952 1.34192 15.0627 1.47429C14.9303 1.60666 14.8255 1.76409 14.7546 1.93738C14.6836 2.11067 14.6479 2.29636 14.6495 2.48361C14.651 2.67086 14.6899 2.85592 14.7637 3.028C14.8376 3.20007 14.945 3.35572 15.0797 3.48584L18.1923 6.60303C18.2981 6.70881 18.3575 6.85227 18.3575 7.00184C18.3575 7.15142 18.2981 7.29487 18.1923 7.40066L15.0797 10.5178C14.8228 10.7839 14.6808 11.1402 14.6841 11.5099C14.6874 11.8797 14.8358 12.2333 15.0974 12.4947C15.3589 12.7561 15.7127 12.9043 16.0824 12.9074C16.4522 12.9106 16.8084 12.7683 17.0743 12.5113L21.587 7.9986Z" fill="#4EFFC4"/>
<path d="M6.92047 1.49275C6.78959 1.36162 6.63413 1.25759 6.463 1.18662C6.29187 1.11564 6.10842 1.0791 5.92315 1.0791C5.73789 1.0791 5.55444 1.11564 5.3833 1.18662C5.21217 1.25759 5.05672 1.36162 4.92583 1.49275L0.413083 6.0055C0.282126 6.13636 0.178239 6.29175 0.107361 6.46278C0.0364817 6.6338 0 6.81712 0 7.00226C0 7.18739 0.0364817 7.37071 0.107361 7.54174C0.178239 7.71276 0.282126 7.86815 0.413083 7.99901L4.92583 12.5118C5.05589 12.6465 5.21147 12.754 5.3835 12.8279C5.55553 12.9019 5.74058 12.9408 5.92782 12.9425C6.11507 12.9442 6.30078 12.9086 6.47411 12.8377C6.64745 12.7669 6.80493 12.6622 6.93738 12.5298C7.06983 12.3974 7.17459 12.24 7.24554 12.0667C7.3165 11.8934 7.35223 11.7077 7.35066 11.5205C7.34909 11.3332 7.31024 11.1482 7.23638 10.9761C7.16252 10.804 7.05513 10.6484 6.92047 10.5183L3.80329 7.40107C3.69754 7.29529 3.63813 7.15183 3.63813 7.00226C3.63813 6.85268 3.69754 6.70923 3.80329 6.60344L6.92047 3.48626C7.05143 3.3554 7.15531 3.20001 7.22619 3.02898C7.29707 2.85796 7.33355 2.67464 7.33355 2.4895C7.33355 2.30437 7.29707 2.12105 7.22619 1.95002C7.15531 1.779 7.05143 1.62361 6.92047 1.49275Z" fill="#4EFFC4"/>
<path d="M9.56636 13.4557C9.66716 13.4777 9.77005 13.4887 9.87322 13.4885C10.1938 13.488 10.5047 13.3786 10.7548 13.178C11.005 12.9775 11.1795 12.6979 11.2496 12.3851L13.506 2.23139C13.5872 1.86545 13.5198 1.48223 13.3185 1.16603C13.1171 0.849829 12.7985 0.626551 12.4325 0.545314C12.0666 0.464077 11.6834 0.531537 11.3672 0.732851C11.051 0.934166 10.8277 1.25285 10.7464 1.61878L8.49006 11.7725C8.45017 11.9537 8.44637 12.141 8.47888 12.3236C8.51138 12.5063 8.57956 12.6808 8.6795 12.8371C8.77945 12.9934 8.90922 13.1285 9.06138 13.2346C9.21355 13.3408 9.38514 13.4159 9.56636 13.4557Z" fill="#4EFFC4"/>
</svg>
