<svg width="22" height="22" viewBox="0 0 22 22" fill="none" xmlns="http://www.w3.org/2000/svg">
<path d="M20.625 0H1.375C1.01033 0 0.660591 0.144866 0.402728 0.402728C0.144866 0.660591 0 1.01033 0 1.375L0 20.625C0 20.9897 0.144866 21.3394 0.402728 21.5973C0.660591 21.8551 1.01033 22 1.375 22H20.625C20.9897 22 21.3394 21.8551 21.5973 21.5973C21.8551 21.3394 22 20.9897 22 20.625V1.375C22 1.01033 21.8551 0.660591 21.5973 0.402728C21.3394 0.144866 20.9897 0 20.625 0V0ZM8.25 8.70833C7.68107 8.70863 7.12605 8.53247 6.66143 8.20411C6.19682 7.87576 5.84548 7.41139 5.65583 6.875H4.125C3.88189 6.875 3.64873 6.77842 3.47682 6.60651C3.30491 6.43461 3.20833 6.20145 3.20833 5.95833C3.20833 5.71522 3.30491 5.48206 3.47682 5.31015C3.64873 5.13824 3.88189 5.04167 4.125 5.04167H5.65583C5.82387 4.56639 6.11931 4.14645 6.50987 3.82773C6.90043 3.50902 7.37108 3.30378 7.87039 3.23446C8.3697 3.16514 8.87847 3.2344 9.34108 3.43467C9.80369 3.63494 10.2024 3.95851 10.4935 4.37003C10.7847 4.78155 10.9571 5.26519 10.992 5.76808C11.0268 6.27097 10.9228 6.77378 10.6913 7.22155C10.4597 7.66932 10.1095 8.04483 9.67897 8.30704C9.24843 8.56925 8.7541 8.70807 8.25 8.70833ZM9.16667 16.0417C9.16667 16.2848 9.07009 16.5179 8.89818 16.6898C8.72627 16.8618 8.49312 16.9583 8.25 16.9583H4.125C3.88189 16.9583 3.64873 16.8618 3.47682 16.6898C3.30491 16.5179 3.20833 16.2848 3.20833 16.0417C3.20833 15.7986 3.30491 15.5654 3.47682 15.3935C3.64873 15.2216 3.88189 15.125 4.125 15.125H8.25C8.49312 15.125 8.72627 15.2216 8.89818 15.3935C9.07009 15.5654 9.16667 15.7986 9.16667 16.0417ZM13.2917 13.2917C13.8606 13.2914 14.4156 13.4675 14.8802 13.7959C15.3448 14.1242 15.6962 14.5886 15.8858 15.125H17.875C18.1181 15.125 18.3513 15.2216 18.5232 15.3935C18.6951 15.5654 18.7917 15.7986 18.7917 16.0417C18.7917 16.2848 18.6951 16.5179 18.5232 16.6898C18.3513 16.8618 18.1181 16.9583 17.875 16.9583H15.8858C15.7178 17.4336 15.4224 17.8535 15.0318 18.1723C14.6412 18.491 14.1706 18.6962 13.6713 18.7655C13.172 18.8349 12.6632 18.7656 12.2006 18.5653C11.738 18.3651 11.3393 18.0415 11.0482 17.63C10.757 17.2184 10.5846 16.7348 10.5497 16.2319C10.5148 15.729 10.6188 15.2262 10.8504 14.7784C11.082 14.3307 11.4322 13.9552 11.8627 13.693C12.2932 13.4308 12.7876 13.2919 13.2917 13.2917ZM17.875 6.875H13.2917C13.0486 6.875 12.8154 6.77842 12.6435 6.60651C12.4716 6.43461 12.375 6.20145 12.375 5.95833C12.375 5.71522 12.4716 5.48206 12.6435 5.31015C12.8154 5.13824 13.0486 5.04167 13.2917 5.04167H17.875C18.1181 5.04167 18.3513 5.13824 18.5232 5.31015C18.6951 5.48206 18.7917 5.71522 18.7917 5.95833C18.7917 6.20145 18.6951 6.43461 18.5232 6.60651C18.3513 6.77842 18.1181 6.875 17.875 6.875Z" fill="#9D8DC4"/>
</svg>
