<svg width="18" height="16" viewBox="0 0 18 16" fill="none" xmlns="http://www.w3.org/2000/svg">
<path d="M2.25 1.25C2.25 0.627734 1.74727 0.125 1.125 0.125C0.502734 0.125 0 0.627734 0 1.25V13.0625C0 14.6164 1.25859 15.875 2.8125 15.875H16.875C17.4973 15.875 18 15.3723 18 14.75C18 14.1277 17.4973 13.625 16.875 13.625H2.8125C2.50312 13.625 2.25 13.3719 2.25 13.0625V1.25ZM15.4336 8.80859C15.9645 9.33945 16.875 8.96328 16.875 8.21094V4.34375C16.875 3.87617 16.4988 3.5 16.0312 3.5H12.1605C11.4082 3.5 11.032 4.41055 11.5629 4.94141L12.702 6.08047L10.6875 8.09492L8.10703 5.51445C7.66758 5.075 6.95391 5.075 6.51445 5.51445L3.70195 8.32695C3.2625 8.76641 3.2625 9.48008 3.70195 9.91953C4.14141 10.359 4.85508 10.359 5.29453 9.91953L7.3125 7.90508L9.89297 10.4855C10.3324 10.925 11.0461 10.925 11.4855 10.4855L14.298 7.67305L15.4336 8.80859Z" fill="#1EEE86"/>
</svg>
