<svg width="22" height="22" viewBox="0 0 22 22" fill="none" xmlns="http://www.w3.org/2000/svg">
<path d="M22 13.0629C22.0014 12.2085 21.7375 11.3747 21.2448 10.6766C20.752 9.97854 20.0547 9.45067 19.2491 9.16586V8.47814C19.2491 6.28943 18.3797 4.19036 16.832 2.6427C15.2844 1.09505 13.1853 0.225586 10.9966 0.225586C8.80787 0.225586 6.7088 1.09505 5.16114 2.6427C3.61349 4.19036 2.74402 6.28943 2.74402 8.47814V9.16586C1.9412 9.45129 1.24642 9.97825 0.755096 10.6744C0.263773 11.3705 0 12.2017 0 13.0537C0 13.9058 0.263773 14.7369 0.755096 15.4331C1.24642 16.1292 1.9412 16.6562 2.74402 16.9416C2.9518 17.0138 3.17358 17.0365 3.39169 17.0079C3.60979 16.9792 3.81818 16.9 4.00025 16.7766C4.17703 16.648 4.32133 16.4799 4.42162 16.2857C4.52192 16.0914 4.57544 15.8765 4.57793 15.6579V8.47814C4.57793 6.77581 5.25417 5.1432 6.45791 3.93947C7.66164 2.73574 9.29425 2.05949 10.9966 2.05949C12.6989 2.05949 14.3315 2.73574 15.5353 3.93947C16.739 5.1432 17.4152 6.77581 17.4152 8.47814V15.6579C17.417 15.8487 17.4587 16.037 17.5376 16.2108C17.6166 16.3845 17.7311 16.5397 17.8737 16.6665V17.1892C17.8737 18.5463 16.6908 19.0231 15.5813 19.0231H13.9492C13.788 18.7439 13.556 18.5121 13.2767 18.3512C12.9974 18.1902 12.6806 18.1057 12.3582 18.1062C12.0358 18.1067 11.7193 18.1921 11.4404 18.3539C11.1616 18.5158 10.9304 18.7482 10.77 19.0279C10.6097 19.3076 10.5259 19.6246 10.5271 19.947C10.5283 20.2694 10.6145 20.5857 10.7769 20.8642C10.9394 21.1426 11.1724 21.3734 11.4524 21.5331C11.7324 21.6928 12.0496 21.7759 12.372 21.7739C12.692 21.772 13.006 21.6863 13.2827 21.5255C13.5594 21.3646 13.7891 21.1342 13.9492 20.857H15.5813C18.0113 20.857 19.7076 19.3532 19.7076 17.1892V16.749C20.3945 16.4083 20.9728 15.8829 21.3777 15.2318C21.7826 14.5807 21.9981 13.8296 22 13.0629Z" fill="#3671E9"/>
</svg>
