<svg width="22" height="18" viewBox="0 0 22 18" fill="none" xmlns="http://www.w3.org/2000/svg">
<path d="M3.20437 11.5015C3.44739 11.5015 3.68045 11.405 3.85229 11.2332C4.02412 11.0613 4.12066 10.8283 4.12066 10.5853V2.9709C4.12066 2.80808 4.18534 2.65193 4.30047 2.5368C4.4156 2.42167 4.57175 2.35699 4.73457 2.35699H17.2511C17.3317 2.35699 17.4115 2.37287 17.486 2.40372C17.5605 2.43457 17.6282 2.47979 17.6852 2.5368C17.7422 2.59381 17.7874 2.66148 17.8182 2.73597C17.8491 2.81045 17.865 2.89028 17.865 2.9709V10.5853C17.865 10.8283 17.9615 11.0613 18.1334 11.2332C18.3052 11.405 18.5383 11.5015 18.7813 11.5015C19.0243 11.5015 19.2573 11.405 19.4292 11.2332C19.601 11.0613 19.6976 10.8283 19.6976 10.5853V2.9709C19.6951 2.3228 19.4366 1.70192 18.9783 1.24364C18.52 0.785357 17.8992 0.526828 17.2511 0.524414H4.73457C4.08647 0.526828 3.4656 0.785357 3.00731 1.24364C2.54903 1.70192 2.2905 2.3228 2.28809 2.9709V10.5853C2.28809 10.8283 2.38462 11.0613 2.55646 11.2332C2.7283 11.405 2.96136 11.5015 3.20437 11.5015Z" fill="#4EFFC4"/>
<path d="M21.8876 13.0686C21.8454 13.0141 21.7912 12.9701 21.7292 12.9399C21.6673 12.9097 21.5992 12.8942 21.5303 12.8945H14.2C14.0784 12.8945 13.9619 12.9428 13.876 13.0287C13.7901 13.1146 13.7418 13.2312 13.7418 13.3527C13.7418 14.0032 12.6148 14.7271 10.9929 14.7271C9.37112 14.7271 8.24408 14.0032 8.24408 13.3527C8.24408 13.2312 8.19581 13.1146 8.10989 13.0287C8.02398 12.9428 7.90744 12.8945 7.78594 12.8945H0.455635C0.386702 12.8942 0.318613 12.9097 0.256642 12.9399C0.194672 12.9701 0.140486 13.0141 0.0982825 13.0686C0.0541684 13.123 0.0236717 13.1871 0.00932828 13.2556C-0.00501513 13.3242 -0.00279069 13.3951 0.0158166 13.4626C0.298764 14.6092 0.958106 15.6278 1.88836 16.3554C2.81862 17.083 3.96603 17.4776 5.14703 17.476H16.8389C18.023 17.4817 19.1747 17.089 20.1086 16.3611C21.0426 15.6332 21.7047 14.6123 21.9884 13.4626C22.0046 13.3937 22.0038 13.3219 21.9863 13.2533C21.9687 13.1847 21.9349 13.1213 21.8876 13.0686Z" fill="#4EFFC4"/>
</svg>
