<svg width="14" height="18" viewBox="0 0 14 18" fill="none" xmlns="http://www.w3.org/2000/svg">
<path d="M11.414 1.56829C11.6214 1.08665 11.4667 0.524146 11.0413 0.214771C10.6159 -0.0946038 10.0358 -0.0664788 9.63857 0.278052L0.638567 8.15305C0.287004 8.46243 0.160442 8.95813 0.325676 9.39407C0.49091 9.83001 0.912785 10.1253 1.38036 10.1253H5.30029L2.59677 16.4323C2.38935 16.914 2.54404 17.4765 2.96943 17.7859C3.39482 18.0952 3.9749 18.0671 4.37216 17.7226L13.3722 9.84758C13.7237 9.53821 13.8503 9.04251 13.6851 8.60657C13.5198 8.17063 13.1015 7.87883 12.6304 7.87883H8.71044L11.414 1.56829Z" fill="#FFC13B"/>
</svg>
