<svg width="22" height="22" viewBox="0 0 22 22" fill="none" xmlns="http://www.w3.org/2000/svg">
<path d="M19.8906 12.8782C19.4678 12.7331 19.0047 12.7617 18.603 12.9578C18.2012 13.1539 17.8938 13.5015 17.7481 13.9241C17.362 15.0661 16.6834 16.0871 15.7799 16.8852C14.8764 17.6833 13.7796 18.2308 12.5986 18.4732C11.4177 18.7155 10.1939 18.6442 9.0491 18.2664C7.9043 17.8885 6.87847 17.2174 6.07378 16.3197C6.03604 16.2821 6.00609 16.2374 5.98565 16.1882C5.96522 16.139 5.9547 16.0862 5.9547 16.0329C5.9547 15.9796 5.96522 15.9269 5.98565 15.8776C6.00609 15.8284 6.03604 15.7837 6.07378 15.7461L8.97549 12.8444C9.09372 12.7248 9.17431 12.5732 9.20729 12.4083C9.24027 12.2434 9.2242 12.0724 9.16107 11.9165C9.09779 11.7625 8.99032 11.6306 8.85222 11.5376C8.71412 11.4445 8.55156 11.3944 8.38503 11.3936H0.8777C0.653984 11.3936 0.439431 11.4824 0.28124 11.6406C0.12305 11.7988 0.0341797 12.0134 0.0341797 12.2371V19.7613C0.035011 19.9278 0.085118 20.0904 0.178186 20.2285C0.271255 20.3666 0.40312 20.474 0.557163 20.5373C0.709216 20.6062 0.879137 20.6254 1.04272 20.5921C1.20629 20.5587 1.35518 20.4746 1.46816 20.3517L3.1552 18.6647C3.234 18.627 3.321 18.6096 3.40826 18.6141C3.46538 18.6148 3.52175 18.6272 3.57395 18.6504C3.62615 18.6736 3.67309 18.7072 3.71193 18.7491C4.92471 20.044 6.45218 21.0029 8.14557 21.5322C9.83897 22.0615 11.6406 22.1433 13.375 21.7696C15.1094 21.3959 16.7174 20.5794 18.0426 19.3996C19.3677 18.2199 20.3647 16.7171 20.9366 15.0376C21.011 14.8272 21.043 14.6041 21.0306 14.3813C21.0182 14.1585 20.9617 13.9403 20.8645 13.7395C20.7672 13.5386 20.631 13.3591 20.4639 13.2112C20.2967 13.0634 20.1019 12.9502 19.8906 12.8782Z" fill="#7583FF"/>
<path d="M21.9658 2.1316C21.965 1.96506 21.9149 1.8025 21.8218 1.6644C21.7288 1.5263 21.5969 1.41884 21.4429 1.35556C21.2892 1.29599 21.1216 1.2818 20.9601 1.3147C20.7986 1.3476 20.65 1.42619 20.5319 1.54113L18.8448 3.22817C18.7601 3.30108 18.6529 3.34275 18.5411 3.34627C18.484 3.34551 18.4277 3.33315 18.3755 3.30995C18.3233 3.28675 18.2763 3.25319 18.2375 3.2113C17.0203 1.92545 15.4916 0.975966 13.7994 0.454935C12.1073 -0.0660964 10.3092 -0.140988 8.57957 0.237524C6.84996 0.616036 5.24751 1.43511 3.92766 2.61529C2.60781 3.79547 1.61535 5.29671 1.04654 6.9734C0.964964 7.18498 0.926879 7.41084 0.934563 7.63747C0.942247 7.86411 0.995541 8.08686 1.09126 8.29243C1.18698 8.498 1.32316 8.68217 1.49167 8.83392C1.66017 8.98567 1.85754 9.10189 2.07198 9.17564C2.28641 9.24938 2.51352 9.27914 2.73971 9.26314C2.96591 9.24713 3.18656 9.18569 3.38847 9.08248C3.59039 8.97927 3.76942 8.83642 3.91488 8.66245C4.06034 8.48849 4.16923 8.28698 4.23505 8.06998C4.62237 6.9344 5.29842 5.9191 6.19679 5.12381C7.09516 4.32852 8.18495 3.78059 9.35912 3.53384C10.5333 3.2871 11.7514 3.35002 12.8939 3.71643C14.0364 4.08285 15.064 4.74015 15.8756 5.62377C15.9491 5.70453 15.9899 5.8098 15.9899 5.919C15.9899 6.0282 15.9491 6.13347 15.8756 6.21423L13.0751 9.01472C12.9595 9.13262 12.8811 9.28185 12.8495 9.44392C12.8179 9.60599 12.8346 9.77376 12.8975 9.92644C12.9603 10.0791 13.0666 10.21 13.2032 10.3028C13.3397 10.3957 13.5005 10.4464 13.6656 10.4487H21.1223C21.346 10.4487 21.5606 10.3598 21.7188 10.2016C21.877 10.0435 21.9658 9.8289 21.9658 9.60518V2.1316Z" fill="#7583FF"/>
</svg>
