<svg width="16" height="18" viewBox="0 0 16 18" fill="none" xmlns="http://www.w3.org/2000/svg">
<path d="M6.31738 0C5.69512 0 5.19238 0.502734 5.19238 1.125C5.19238 1.74727 5.69512 2.25 6.31738 2.25H6.87988V3.45938C3.3748 4.00078 0.692383 7.03125 0.692383 10.6875C0.692383 14.727 3.96543 18 8.00488 18C12.0443 18 15.3174 14.727 15.3174 10.6875C15.3174 9.21797 14.885 7.85039 14.1396 6.70781L14.9869 5.86055C15.4264 5.42109 15.4264 4.70742 14.9869 4.26797C14.5475 3.82852 13.8338 3.82852 13.3943 4.26797L12.635 5.02734C11.6471 4.21875 10.4482 3.66328 9.12988 3.45938V2.25H9.69238C10.3146 2.25 10.8174 1.74727 10.8174 1.125C10.8174 0.502734 10.3146 0 9.69238 0H8.00488H6.31738ZM8.84863 6.75V11.25C8.84863 11.7176 8.47246 12.0938 8.00488 12.0938C7.5373 12.0938 7.16113 11.7176 7.16113 11.25V6.75C7.16113 6.28242 7.5373 5.90625 8.00488 5.90625C8.47246 5.90625 8.84863 6.28242 8.84863 6.75Z" fill="#53ACFF"/>
</svg>
