<svg width="18" height="20" viewBox="0 0 18 20" fill="none" xmlns="http://www.w3.org/2000/svg">
<path fill-rule="evenodd" clip-rule="evenodd" d="M11.2912 0.617627C11.6174 0.703607 11.8907 0.926192 12.0426 1.22889C12.6115 2.36783 13.0367 3.05924 13.4642 3.61988C13.8976 4.18759 14.3546 4.65162 15.0519 5.34771C16.6608 6.95778 17.4664 9.06961 17.4664 11.1779C17.4664 13.2862 16.6608 15.398 15.0519 17.0081C11.8318 20.227 6.6117 20.227 3.39157 17.0081C1.78268 15.398 0.977051 13.2862 0.977051 11.1779C0.977051 9.06961 1.78268 6.95778 3.39157 5.34771C3.72842 5.01085 4.23488 4.91074 4.67538 5.0933C5.11588 5.27468 5.40209 5.70462 5.40209 6.18046C5.40209 7.49961 5.48453 8.50427 5.87086 9.30636C6.08286 9.74686 6.41384 10.178 6.9839 10.5631C7.12052 9.31345 7.37022 7.79051 7.70707 6.34652C7.97208 5.20875 8.30185 4.07333 8.69524 3.12637C8.89194 2.65171 9.11455 2.20176 9.3666 1.8119C9.61159 1.43265 9.92725 1.04757 10.3348 0.775492C10.6163 0.58822 10.9649 0.530469 11.2912 0.617627ZM11.7199 16.0316C10.3407 17.412 8.10281 17.412 6.72359 16.0316C6.03339 15.3426 5.6883 14.4381 5.6883 13.5335C5.6883 13.5335 6.72359 14.1224 8.63283 14.1224C8.63283 12.9446 9.22173 9.41117 10.1051 8.82227C10.694 10.0001 11.0309 10.3452 11.7199 11.0354C12.4101 11.7244 12.7552 12.629 12.7552 13.5335C12.7552 14.4381 12.4101 15.3426 11.7199 16.0316Z" fill="#3671E9"/>
</svg>
