<svg width="25" height="24" viewBox="0 0 25 24" fill="none" xmlns="http://www.w3.org/2000/svg">
<path d="M18.1746 7.77C18.1046 7.76 18.0346 7.76 17.9646 7.77C16.4146 7.72 15.1846 6.45 15.1846 4.89C15.1846 3.3 16.4746 2 18.0746 2C19.6646 2 20.9646 3.29 20.9646 4.89C20.9546 6.45 19.7246 7.72 18.1746 7.77Z" fill="#3671E9"/>
<path d="M21.4346 14.7C20.3146 15.45 18.7446 15.73 17.2946 15.54C17.6746 14.72 17.8746 13.81 17.8846 12.85C17.8846 11.85 17.6646 10.9 17.2446 10.07C18.7246 9.87004 20.2946 10.15 21.4246 10.9C23.0046 11.94 23.0046 13.65 21.4346 14.7Z" fill="#3671E9"/>
<path d="M7.08469 7.77C7.15469 7.76 7.22469 7.76 7.29469 7.77C8.84469 7.72 10.0747 6.45 10.0747 4.89C10.0747 3.29 8.78469 2 7.18469 2C5.59469 2 4.30469 3.29 4.30469 4.89C4.30469 6.45 5.53469 7.72 7.08469 7.77Z" fill="#3671E9"/>
<path d="M7.19465 12.85C7.19465 13.82 7.40465 14.74 7.78465 15.57C6.37465 15.72 4.90465 15.42 3.82465 14.71C2.24465 13.66 2.24465 11.95 3.82465 10.9C4.89465 10.18 6.40465 9.88998 7.82465 10.05C7.41465 10.89 7.19465 11.84 7.19465 12.85Z" fill="#3671E9"/>
<path d="M12.7643 15.87C12.6843 15.86 12.5943 15.86 12.5043 15.87C10.6643 15.81 9.19434 14.3 9.19434 12.44C9.20434 10.54 10.7343 9 12.6443 9C14.5443 9 16.0843 10.54 16.0843 12.44C16.0743 14.3 14.6143 15.81 12.7643 15.87Z" fill="#3671E9"/>
<path d="M9.51434 17.94C8.00434 18.95 8.00434 20.61 9.51434 21.61C11.2343 22.76 14.0543 22.76 15.7743 21.61C17.2843 20.6 17.2843 18.94 15.7743 17.94C14.0643 16.79 11.2443 16.79 9.51434 17.94Z" fill="#3671E9"/>
</svg>
