<svg width="46" height="46" viewBox="0 0 46 46" fill="none" xmlns="http://www.w3.org/2000/svg">
<path d="M32.6533 0H13.3697C4.99349 0 0 4.991 0 13.363V32.614C0 41.009 4.99349 46 13.3697 46H32.6303C41.0064 46 45.9999 41.009 45.9999 32.637V13.363C46.0229 4.991 41.0294 0 32.6533 0ZM29.4317 24.219L21.3086 32.338C20.9634 32.683 20.5262 32.844 20.089 32.844C19.6518 32.844 19.2146 32.683 18.8694 32.338C18.2021 31.671 18.2021 30.567 18.8694 29.9L25.7728 23L18.8694 16.1C18.2021 15.433 18.2021 14.329 18.8694 13.662C19.5367 12.995 20.6413 12.995 21.3086 13.662L29.4317 21.781C30.122 22.448 30.122 23.552 29.4317 24.219Z" fill="#3671E9"/>
</svg>
