<svg width="16" height="16" viewBox="0 0 16 16" fill="none" xmlns="http://www.w3.org/2000/svg">
<rect x="0.5" y="0.5" width="15" height="15" rx="7.5" stroke="#1D4ED8"/>
<path d="M7.4705 11.5V4.95455H8.47619V11.5H7.4705ZM7.98187 3.86364C7.78584 3.86364 7.61681 3.79688 7.47476 3.66335C7.33556 3.52983 7.26596 3.36932 7.26596 3.18182C7.26596 2.99432 7.33556 2.83381 7.47476 2.70028C7.61681 2.56676 7.78584 2.5 7.98187 2.5C8.17789 2.5 8.3455 2.56676 8.48471 2.70028C8.62675 2.83381 8.69778 2.99432 8.69778 3.18182C8.69778 3.36932 8.62675 3.52983 8.48471 3.66335C8.3455 3.79688 8.17789 3.86364 7.98187 3.86364Z" fill="#1D4ED8"/>
</svg>
