<svg width="25" height="20" viewBox="0 0 25 20" fill="none" xmlns="http://www.w3.org/2000/svg">
<path fill-rule="evenodd" clip-rule="evenodd" d="M23.1365 0.437889C23.7057 0.718633 24.0254 1.0992 24.0254 1.49598C24.0254 1.89277 23.7057 2.27333 23.1365 2.55407L8.06015 9.98067L23.1365 17.4073C23.4351 17.5443 23.6746 17.7096 23.8408 17.8933C24.0069 18.077 24.0962 18.2752 24.1034 18.4763C24.1106 18.6773 24.0356 18.877 23.8827 19.0635C23.7298 19.2499 23.5023 19.4193 23.2136 19.5615C22.925 19.7036 22.5812 19.8157 22.2027 19.891C21.8242 19.9663 21.4188 20.0033 21.0107 19.9998C20.6026 19.9962 20.2001 19.9522 19.8272 19.8704C19.4544 19.7885 19.1188 19.6706 18.8405 19.5234L1.61623 11.0388C1.04702 10.758 0.727295 10.3775 0.727295 9.98067C0.727295 9.58388 1.04702 9.20332 1.61623 8.92258L18.8405 0.437889C19.4105 0.157495 20.183 0 20.9885 0C21.794 0 22.5666 0.157495 23.1365 0.437889Z" fill="white"/>
</svg>
