<svg width="13" height="16" viewBox="0 0 13 16" fill="none" xmlns="http://www.w3.org/2000/svg">
<path d="M12.3812 1.82187C12.5594 1.6125 12.5344 1.29687 12.3219 1.11875C12.1094 0.940622 11.7969 0.965622 11.6156 1.17812L6.5 7.225L1.38125 1.17812C1.20312 0.968747 0.887497 0.940622 0.678122 1.11875C0.468747 1.29687 0.440622 1.6125 0.618747 1.82187L5.84375 8L0.618747 14.1781C0.440622 14.3875 0.465622 14.7031 0.678122 14.8844C0.890622 15.0656 1.20312 15.0375 1.38125 14.825L6.5 8.775L11.6187 14.8219C11.7969 15.0312 12.1125 15.0594 12.325 14.8812C12.5375 14.7031 12.5625 14.3875 12.3844 14.175L7.15625 8L12.3812 1.82187Z" fill="#1D4ED8"/>
</svg>
