<svg width="19" height="14" viewBox="0 0 19 14" fill="none" xmlns="http://www.w3.org/2000/svg">
<path d="M16.4711 0.4118C15.557 0.1235 14.5523 0 13.5887 0C11.9828 0 10.2534 0.3294 9.05929 1.2353C7.86519 0.3294 6.13579 0 4.52989 0C2.92399 0 1.19459 0.3294 0.000488281 1.2353V13.3C0.000488281 13.5059 0.206389 13.7118 0.412289 13.7118C0.494589 13.7118 0.535789 13.6706 0.618089 13.6706C1.72989 13.1353 3.33579 12.7647 4.52989 12.7647C6.13579 12.7647 7.86519 13.0941 9.05929 14C10.1711 13.3 12.1887 12.7647 13.5887 12.7647C14.9475 12.7647 16.3475 13.0118 17.5005 13.6294C17.5828 13.6706 17.624 13.6706 17.7064 13.6706C17.9123 13.6706 18.1181 13.4647 18.1181 13.2588V1.2353C17.624 0.8647 17.0887 0.6176 16.4711 0.4118ZM16.4711 11.5294C15.5652 11.2412 14.577 11.1176 13.5887 11.1176C12.1887 11.1176 10.1711 11.6529 9.05929 12.3529V2.8824C10.1711 2.1824 12.1887 1.6471 13.5887 1.6471C14.577 1.6471 15.5652 1.7706 16.4711 2.0588V11.5294Z" fill="#FFFFFF"/>
</svg>
