<svg width="20" height="20" viewBox="0 0 20 20" fill="none" xmlns="http://www.w3.org/2000/svg">
<path d="M10.4883 1.45703C10.1758 1.32422 9.82424 1.32422 9.51174 1.45703L2.60939 4.38672C2.16799 4.57031 1.87111 4.98828 1.87502 5.46094C1.89455 9.13281 3.41017 15.6094 9.50783 18.5273C9.81642 18.6758 10.1797 18.6758 10.4883 18.5273C16.586 15.6094 18.1055 9.13672 18.125 5.46094C18.1289 4.98828 17.8321 4.57031 17.3906 4.38281L10.4883 1.45312V1.45703ZM9.02346 0.304688C9.64846 0.0390625 10.3516 0.0390625 10.9766 0.304688L17.8789 3.23438C18.7383 3.59766 19.3789 4.44531 19.375 5.46875C19.3555 9.34375 17.7617 16.4336 11.0313 19.6562C10.3789 19.9688 9.62111 19.9688 8.96877 19.6562C2.2383 16.4336 0.644549 9.34375 0.625018 5.46875C0.621112 4.44531 1.26174 3.59766 2.12111 3.23438L9.02346 0.304688Z" fill="white"/>
</svg>
