<svg width="18" height="17" viewBox="0 0 18 17" fill="none" xmlns="http://www.w3.org/2000/svg">
<path d="M16.4775 4.3875V6.8625C16.4775 8.925 15.6525 9.75 13.59 9.75H12.7275V9.1875C12.7275 6.375 11.6025 5.25 8.79 5.25H8.2275V4.3875C8.2275 2.325 9.0525 1.5 11.115 1.5H13.59C15.6525 1.5 16.4775 2.325 16.4775 4.3875Z" stroke="white" stroke-width="1.5" stroke-linecap="round" stroke-linejoin="round"/>
<path d="M16.2451 7.8299L15.5101 10.9649C14.8801 13.6724 13.6351 14.7674 11.2951 14.5424C10.9201 14.5124 10.5151 14.4449 10.0801 14.3399L8.8201 14.0399C5.6926 13.2974 4.7251 11.7524 5.4601 8.6174L6.1951 5.4749C6.3451 4.8374 6.5251 4.2824 6.7501 3.8249C7.6276 2.0099 9.1201 1.5224 11.6251 2.1149L12.8776 2.4074C16.0201 3.1424 16.9801 4.6949 16.2451 7.8299Z" stroke="white" stroke-width="1.2" stroke-linecap="round" stroke-linejoin="round"/>
<path d="M11.2953 14.5425C10.8303 14.8575 10.2453 15.12 9.5328 15.3525L8.3478 15.7425C5.3703 16.7025 3.8028 15.9 2.8353 12.9225L1.8753 9.96C0.915302 6.9825 1.7103 5.4075 4.6878 4.4475L5.8728 4.0575C6.1803 3.96 6.4728 3.8775 6.7503 3.825C6.5253 4.2825 6.3453 4.8375 6.1953 5.475L5.4603 8.6175C4.7253 11.7525 5.6928 13.2975 8.8203 14.04L10.0803 14.34C10.5153 14.445 10.9203 14.5125 11.2953 14.5425Z" stroke="white" stroke-width="1.2" stroke-linecap="round" stroke-linejoin="round"/>
<path d="M9.48 6.3975L13.1175 7.32" stroke="white" stroke-width="1.2" stroke-linecap="round" stroke-linejoin="round"/>
<path d="M8.7451 9.3L10.9201 9.855" stroke="white" stroke-width="1.2" stroke-linecap="round" stroke-linejoin="round"/>
</svg>
