<svg width="20" height="18" viewBox="0 0 20 18" fill="none" xmlns="http://www.w3.org/2000/svg">
<path d="M2.67 15.1111C2.67 15.2216 2.7595 15.3111 2.87 15.3111H6.61C6.7205 15.3111 6.81 15.2216 6.81 15.1111V7.55555C6.81 7.44505 6.7205 7.35555 6.61 7.35555H2.87C2.7595 7.35555 2.67 7.44505 2.67 7.55555V15.1111ZM8.28 15.1111C8.28 15.2216 8.3695 15.3111 8.48 15.3111H12.22C12.3305 15.3111 12.42 15.2216 12.42 15.1111V1.88885C12.42 1.77835 12.3305 1.68885 12.22 1.68885H8.48C8.3695 1.68885 8.28 1.77835 8.28 1.88885V15.1111ZM13.89 15.1111C13.89 15.2216 13.9795 15.3111 14.09 15.3111H17.83C17.9405 15.3111 18.03 15.2216 18.03 15.1111V9.44435C18.03 9.33395 17.9405 9.24435 17.83 9.24435H14.09C13.9795 9.24435 13.89 9.33395 13.89 9.44435V15.1111ZM1.2 15.1114V7.55555C1.2 7.08895 1.3623 6.69465 1.6919 6.36175C2.0214 6.02885 2.4105 5.86605 2.8698 5.86665H6.61C6.7205 5.86665 6.81 5.77705 6.81 5.66665V1.88885C6.81 1.42225 6.9723 1.02795 7.3019 0.695053C7.6314 0.362253 8.0205 0.199353 8.4798 0.199953H12.22C12.6801 0.199953 13.0695 0.363153 13.399 0.695953C13.7286 1.02885 13.8906 1.42285 13.89 1.88855V7.55555C13.89 7.66595 13.9795 7.75555 14.09 7.75555H17.83C18.2901 7.75555 18.6795 7.91875 19.009 8.25155C19.3386 8.58445 19.5006 8.97835 19.5 9.44415V15.1111C19.5 15.5777 19.3377 15.972 19.0081 16.3049C18.6786 16.6377 18.2895 16.8006 17.8302 16.8H2.87C2.4099 16.8 2.0205 16.6368 1.691 16.304C1.3614 15.9711 1.1994 15.5771 1.2 15.1114ZM2.87 5.66665H6.41H6.61H2.87ZM19.7 9.44435V15.1111C19.7 15.6306 19.5167 16.0754 19.1502 16.4456C18.7837 16.8158 18.3436 17.0006 17.83 17H2.87C2.3558 17 1.9154 16.8149 1.5488 16.4447C1.1823 16.0744 0.999401 15.6299 1 15.1111L19.7 9.44435Z" fill="white" stroke="#0F0F0F" stroke-width="0.4" stroke-linejoin="round"/>
</svg>
