<svg width="16" height="14" viewBox="0 0 16 14" fill="none" xmlns="http://www.w3.org/2000/svg">
<path d="M14.4434 0.00828668C14.1849 -0.0191133 13.9039 0.0211871 13.6215 0.132887C13.2715 0.270487 7.7869 2.57769 2.6743 4.72989L0.984904 5.44089C0.330804 5.70609 0.00050354 6.13749 0.00050354 6.71849C0.00050354 7.12529 0.172704 7.67709 0.994004 8.00219L3.8456 9.14469C4.0921 9.88439 4.6648 11.6019 4.8087 12.0585C4.8943 12.3292 5.1104 13.0111 5.6564 13.1705C5.7684 13.2086 5.8853 13.2283 6.0043 13.2283C6.3489 13.2283 6.597 13.0679 6.7183 12.9745L8.5307 11.4417L10.732 13.4774C10.8168 13.5637 11.2656 14 11.8684 14C12.6205 14 13.1911 13.3739 13.3101 12.7679C13.3746 12.4358 15.4977 1.77969 15.4977 1.77969C15.6883 0.924787 15.3456 0.481387 15.1255 0.292387C14.9369 0.130987 14.7019 0.0356867 14.4434 0.00828668ZM13.9284 1.68849C13.6352 3.15859 12.0366 11.1829 11.7939 12.3395L8.5763 9.36339L6.3932 11.2123L6.9979 8.84689C6.9979 8.84689 11.169 4.62479 11.4202 4.37899C11.6224 4.18219 11.6648 4.11319 11.6648 4.04479C11.6648 3.95379 11.618 3.88829 11.5098 3.88829C11.4126 3.88829 11.2806 3.98149 11.2106 4.02499C10.3212 4.57949 6.5344 6.73689 4.6705 7.79719L1.9663 6.71699L3.2789 6.16559C6.6228 4.75769 12.5781 2.25009 13.9284 1.68849Z" fill="#FFFFFF"/>
</svg>
