<svg width="48" height="48" viewBox="0 0 48 48" fill="none" xmlns="http://www.w3.org/2000/svg">
<g clip-path="url(#clip0_1_4537)">
<path d="M48 0H0V48H48V0Z" fill="white"/>
<path d="M0 3.74402H48" stroke="#D0D0D0" stroke-width="0.192"/>
<path d="M0 9.52234H48" stroke="#D0D0D0" stroke-width="0.192"/>
<path d="M0 15.3007H48" stroke="#D0D0D0" stroke-width="0.192"/>
<path d="M0 21.079H48" stroke="#D0D0D0" stroke-width="0.192"/>
<path d="M0 26.8571H48" stroke="#D0D0D0" stroke-width="0.192"/>
<path d="M0 32.6355H48" stroke="#D0D0D0" stroke-width="0.192"/>
<path d="M0 38.4138H48" stroke="#D0D0D0" stroke-width="0.192"/>
<path d="M0 44.192H48" stroke="#D0D0D0" stroke-width="0.192"/>
<mask id="mask0_1_4537" style="mask-type:luminance" maskUnits="userSpaceOnUse" x="0" y="0" width="48" height="48">
<path d="M48 0H0V48H48V0Z" fill="white"/>
</mask>
<g mask="url(#mask0_1_4537)">
<path d="M12.432 45.3281L11.28 48.3521L36.544 48.3841L36.128 45.8081L34.256 40.8321L32.224 37.6321L33.344 35.6161L32.896 33.3921C32.1706 33.7866 29.6512 34.5281 25.376 34.3361C21.1008 34.1441 17.5787 32.6026 16.352 31.8561C15.7707 32.4746 14.5024 34.1505 14.08 35.9041C13.6576 37.6577 14.704 39.0666 15.28 39.5521L12.432 45.3281Z" fill="#53B6F9"/>
<path d="M11.3183 48.3521C11.2132 48.2794 11.5216 47.0807 13.2118 42.8679C13.7498 41.5271 14.5256 40.306 15.2834 39.2321C15.5318 38.8801 12.032 36.7841 16.208 31.8401L21.152 33.4881L21.872 33.6321C21.1958 33.9946 22.6738 33.4014 22.08 33.8574C16.6745 38.0081 14.593 45.5735 14.181 48.3521H11.3183Z" fill="#001647" fill-opacity="0.2"/>
<path d="M11.472 48.24C11.8829 46.4864 13.1454 42.8202 15.3631 39.424M15.3631 39.424C16.0527 38.368 16.8346 37.3383 17.712 36.4M15.3631 39.424C14.1106 38.5242 12.5488 35.7303 16.3027 31.7464C16.3126 31.7358 16.328 31.7324 16.3408 31.7393C19.2051 33.2848 26.452 35.7578 32.7289 33.3847C32.7424 33.3796 32.7581 33.3844 32.7664 33.3962C33.8726 34.9533 32.8256 36.8196 32.1763 37.5808C32.1667 37.5924 32.1657 37.608 32.1747 37.6199C33.4701 39.3575 35.9734 43.8791 36.528 48.24M23.072 37.024C24.2453 37.6426 27.2384 38.544 29.824 37.2M32.432 42.208C32.7945 43.3386 33.5392 46.2048 33.616 48.624M21.344 43.568C21.1573 44.5546 20.8096 46.9472 20.912 48.624" stroke="black" stroke-width="0.704" stroke-linecap="round"/>
<path d="M29.2437 43.4573L29.1713 43.6084H29.6381L29.7092 43.4573H29.2437ZM29.4437 43.042L29.3714 43.192H29.8352L29.9059 43.042H29.4439H29.4437ZM29.4437 43.042L29.3714 43.192H29.8352L29.9059 43.042H29.4439H29.4437ZM29.1715 43.608H29.6383L29.7094 43.4573H29.2437L29.1713 43.608H29.1715ZM31.3372 43.6589L30.2859 41.1549C30.2692 41.1146 30.2443 41.0816 30.214 41.0589C30.1848 41.0368 30.1511 41.025 30.117 41.024H30.1142C30.0797 41.024 30.0451 41.0356 30.0143 41.0576L30.0143 41.058C29.9836 41.0797 29.9573 41.1117 29.9384 41.1501L29.938 41.1511L29.9375 41.152L28.7399 43.6416L28.7395 43.6426L28.739 43.6439C28.7195 43.6858 28.7081 43.7338 28.7064 43.7824V43.7847C28.7052 43.8336 28.714 43.882 28.7312 43.9248L28.7318 43.9264L28.7325 43.9277C28.7505 43.97 28.7771 44.0055 28.8093 44.0301C28.8423 44.0557 28.8805 44.0692 28.9195 44.0692H31.1448C31.1811 44.0692 31.2174 44.057 31.2497 44.034L31.2502 44.0336L31.2507 44.0333C31.2839 44.009 31.3117 43.9741 31.3311 43.9322L31.3334 43.9277C31.3404 43.9133 31.3456 43.898 31.3492 43.882C31.3573 43.8538 31.3618 43.8247 31.3624 43.7949C31.3635 43.7472 31.3548 43.6999 31.3371 43.6586L31.3372 43.6589ZM30.0469 41.2365C30.0537 41.2228 30.0632 41.2109 30.0744 41.2032C30.0856 41.1952 30.0982 41.1911 30.1107 41.1911C30.1231 41.1911 30.1355 41.1956 30.1462 41.2039C30.1568 41.2116 30.1657 41.2234 30.1714 41.2375L30.231 41.3792L29.784 42.3095H30.368L30.2756 42.09L30.2479 42.1632H29.9911L30.2935 41.5351L30.7345 42.5908H29.3974L30.0469 41.2365ZM28.9234 43.9028C28.9075 43.9028 28.8918 43.897 28.8783 43.8868C28.8649 43.8762 28.8539 43.8618 28.8464 43.8442C28.8389 43.826 28.8354 43.8055 28.8359 43.785C28.8366 43.7645 28.8413 43.7444 28.8496 43.7268L29.3203 42.7469H30.3092L29.7627 43.9028H28.9234ZM31.2203 43.8506C31.2129 43.8666 31.2023 43.8797 31.1897 43.889C31.177 43.898 31.1628 43.9028 31.1486 43.9028H29.8997L30.4463 42.7469H30.8004L31.0046 43.2288H30.7359L30.6586 43.0503H30.5659L30.308 43.5994H30.8914L30.8008 43.3815H31.0707L31.2227 43.7424C31.2297 43.7584 31.233 43.7767 31.2326 43.7952C31.2322 43.8135 31.2279 43.8343 31.2201 43.8503L31.2203 43.8506ZM29.4436 43.042L29.3712 43.192H29.8351L29.9058 43.042H29.4437H29.4436ZM29.1713 43.608H29.6382L29.7092 43.4573H29.2437L29.1713 43.608Z" fill="white"/>
</g>
<path d="M12.1494 20.954C13.8351 15.0904 19.7911 12.8635 22.3717 12.501C23.7115 12.247 27.189 12.0069 30.3797 13.0777C31.36 13.4067 33.5962 14.6365 34.9415 15.9942C36.6231 17.6915 40.7351 23.4257 37.9216 29.6873C35.1079 35.9489 24.2693 34.9533 19.608 33.6583C14.8631 32.3402 10.0634 28.2101 12.1494 20.954Z" fill="#AABBFF"/>
<path d="M14.3774 23.9106C14.5515 16.9943 18.7298 13.8352 20.7972 13.1201C13.8334 14.7062 11.6895 20.9747 11.648 23.9106C12.0957 31.516 18.7039 33.7099 21.792 33.8561C19.2479 33.4228 14.2033 30.827 14.3774 23.9106Z" fill="#001647" fill-opacity="0.2"/>
<path d="M12.1494 20.954C13.8351 15.0904 19.7911 12.8635 22.3717 12.501C23.7115 12.247 27.189 12.0069 30.3797 13.0777C31.36 13.4067 33.5962 14.6365 34.9415 15.9942C36.6231 17.6915 40.7351 23.4257 37.9216 29.6873C35.1079 35.9489 24.2693 34.9533 19.608 33.6583C14.8631 32.3402 10.0634 28.2101 12.1494 20.954Z" stroke="black" stroke-width="0.704" stroke-linecap="round"/>
<mask id="mask1_1_4537" style="mask-type:luminance" maskUnits="userSpaceOnUse" x="0" y="0" width="48" height="48">
<path d="M48 0H0V48H48V0Z" fill="white"/>
</mask>
<g mask="url(#mask1_1_4537)">
<path d="M27.5441 24.9042C27.3917 24.7087 27.1967 24.5507 26.9739 24.442C26.7512 24.3332 26.5066 24.2767 26.2588 24.2767C26.011 24.2767 25.7663 24.3332 25.5436 24.442C25.3209 24.5507 25.1259 24.7087 24.9734 24.9042" stroke="black" stroke-width="0.704" stroke-miterlimit="10" stroke-linecap="round"/>
<path d="M27.8682 29.1508C28.691 29.9872 30.2863 29.9872 31.1094 29.1508" stroke="black" stroke-width="0.704" stroke-miterlimit="10" stroke-linecap="round"/>
<path d="M33.68 24.9042C33.5277 24.7087 33.3325 24.5507 33.1098 24.442C32.887 24.3332 32.6426 24.2767 32.3946 24.2767C32.1469 24.2767 31.9023 24.3332 31.6795 24.442C31.4568 24.5507 31.2618 24.7087 31.1093 24.9042" stroke="black" stroke-width="0.704" stroke-miterlimit="10" stroke-linecap="round"/>
</g>
<mask id="mask2_1_4537" style="mask-type:luminance" maskUnits="userSpaceOnUse" x="0" y="0" width="48" height="48">
<path d="M48 0H0V48H48V0Z" fill="white"/>
</mask>
<g mask="url(#mask2_1_4537)">
<path d="M22.7821 12.2093L21.4124 13.2801L24.1572 14.6226C25.1549 14.6064 27.3933 14.5465 28.3657 14.4361C29.3381 14.3256 30.2945 13.779 30.6511 13.5195L29.2122 12.3927L28.5047 11.5247L27.2662 11.291L26.1348 12.4426L25.9558 11.8366L24.9344 11.4303L23.9392 11.5986L22.7821 12.2093Z" fill="#AABBFF"/>
<path d="M24.1543 14.4366C24.2684 14.0926 24.5332 13.5562 24.9626 13.1699M24.9626 13.1699C25.2619 12.9006 25.6411 12.7043 26.1051 12.6968C26.1807 12.6955 26.254 12.6984 26.3251 12.7049M24.9626 13.1699C24.7003 12.8289 24.2672 12.1697 23.3383 12.0926M28.2294 14.3706C28.098 14.0696 27.8695 13.6211 27.5012 13.264M27.5012 13.264C27.654 12.9521 28.149 12.3254 28.9065 12.3131C28.958 12.3123 29.0088 12.3152 29.0588 12.3216M27.5012 13.264C27.2061 12.9781 26.8214 12.7508 26.3251 12.7049M21.4638 13.3132C21.7053 12.9089 22.2729 12.0992 23.1183 12.0855C23.1946 12.0843 23.2679 12.0868 23.3383 12.0926M23.3383 12.0926C23.4915 11.799 23.9228 11.2099 24.5924 11.199C25.4548 11.1851 26.1618 12.0259 26.3251 12.7049M30.499 13.522C30.2984 13.1416 29.7463 12.4094 29.0588 12.3216M29.0588 12.3216C28.9067 11.9765 28.4597 11.2548 27.8916 11.264C27.1814 11.2755 26.6328 11.8616 26.3229 12.5748" stroke="black" stroke-width="0.704" stroke-linecap="round"/>
</g>
</g>
<defs>
<clipPath id="clip0_1_4537">
<rect width="48" height="48" rx="24" fill="white"/>
</clipPath>
</defs>
</svg>
